<svg xmlns="http://www.w3.org/2000/svg" viewBox="0 0 135.5 135.5" udark-fill="true" udark-id="0.4539404007385798" fill="white" udark-guess="logo" udark-infos="logo_match=true&amp;guessed_type=logo"><path fill="rgba(209,224,255,1)" d="m5.3.6 96.2-.5 24.4 70.3-101.5.5L0 .6z" udark-edit="true" udark-fill="logo-text"></path><path fill="rgba(246,249,255,1)" d="m99.5.4 1.9-.2 24.4 70.3-7.2.2L94.2.4z" udark-edit="true" udark-fill="logo-text"></path><ellipse cx="74.4" cy="54.1" rx="7.3" ry="21.6"></ellipse><ellipse cx="39.9" cy="54.1" rx="7.3" ry="21.6"></ellipse><path fill="rgba(209,224,255,1)" d="m15.4 65.4 96.2-.6 24.4 70.3-101.5.6-24.4-70.3z" udark-edit="true" udark-fill="logo-text"></path><path fill="rgba(247,250,255,1)" d="m38 130.4 96.2-.6 1.7 5.7-101.5.6-1.7-5.7z" udark-edit="true" udark-fill="logo-text"></path><path fill="rgba(246,249,255,1)" d="m111.4 71 1.8-.2 22.8 65-7.2.2-22.7-65z" udark-edit="true" udark-fill="logo-text"></path><path d="M33.4 65.3H21a7.3 21.6 0 0 0 6.3 10.4 7.3 21.6 0 0 0 6.2-10.5zm22.1-.2a7.3 21.6 0 0 0 6.2 10.7A7.3 21.6 0 0 0 68 65z"></path></svg>